<svg width="260" height="180" viewBox="0 0 260 180" xmlns="http://www.w3.org/2000/svg">
  <!-- Complex asymmetric assembly - 11 cubes in highly irregular formation -->
  
  <!-- Base foundation cluster - 4 cubes -->
  <!-- Cube 1: Base anchor bottom left -->
  <g stroke="#2d3748" stroke-width="1.5" fill="none">
    <polygon points="30,130 60,115 90,130 60,145" fill="#3182ce" opacity="0.9"/> <!-- top face -->
    <polygon points="30,130 30,150 60,165 60,145" fill="#2c5282" opacity="0.9"/> <!-- left face -->
    <polygon points="60,145 60,165 90,150 90,130" fill="#2a69ac" opacity="0.9"/> <!-- right face -->
  </g>
  
  <!-- Cube 2: Base center-right irregular -->
  <g stroke="#2d3748" stroke-width="1.5" fill="none">
    <polygon points="120,125 150,110 180,125 150,140" fill="#3182ce" opacity="0.9"/> <!-- top face -->
    <polygon points="120,125 120,145 150,160 150,140" fill="#2c5282" opacity="0.9"/> <!-- left face -->
    <polygon points="150,140 150,160 180,145 180,125" fill="#2a69ac" opacity="0.9"/> <!-- right face -->
  </g>
  
  <!-- Cube 3: Base far right jutting -->
  <g stroke="#2d3748" stroke-width="1.5" fill="none">
    <polygon points="190,105 220,90 250,105 220,120" fill="#3182ce" opacity="0.9"/> <!-- top face -->
    <polygon points="190,105 190,125 220,140 220,120" fill="#2c5282" opacity="0.9"/> <!-- left face -->
    <polygon points="220,120 220,140 250,125 250,105" fill="#2a69ac" opacity="0.9"/> <!-- right face -->
  </g>
  
  <!-- Cube 4: Base back connecting -->
  <g stroke="#2d3748" stroke-width="1.5" fill="none">
    <polygon points="75,110 105,95 135,110 105,125" fill="#3182ce" opacity="0.9"/> <!-- top face -->
    <polygon points="75,110 75,130 105,145 105,125" fill="#2c5282" opacity="0.9"/> <!-- left face -->
    <polygon points="105,125 105,145 135,130 135,110" fill="#2a69ac" opacity="0.9"/> <!-- right face -->
  </g>
  
  <!-- Mid-level asymmetric placements - 4 cubes -->
  <!-- Cube 5: Elevated left wing -->
  <g stroke="#2d3748" stroke-width="1.5" fill="none">
    <polygon points="15,95 45,80 75,95 45,110" fill="#48bb78" opacity="0.9"/> <!-- top face -->
    <polygon points="15,95 15,115 45,130 45,110" fill="#38a169" opacity="0.9"/> <!-- left face -->
    <polygon points="45,110 45,130 75,115 75,95" fill="#2f855a" opacity="0.9"/> <!-- right face -->
  </g>
  
  <!-- Cube 6: Mid-level center gap bridge -->
  <g stroke="#2d3748" stroke-width="1.5" fill="none">
    <polygon points="90,85 120,70 150,85 120,100" fill="#48bb78" opacity="0.9"/> <!-- top face -->
    <polygon points="90,85 90,105 120,120 120,100" fill="#38a169" opacity="0.9"/> <!-- left face -->
    <polygon points="120,100 120,120 150,105 150,85" fill="#2f855a" opacity="0.9"/> <!-- right face -->
  </g>
  
  <!-- Cube 7: Mid-level asymmetric right -->
  <g stroke="#2d3748" stroke-width="1.5" fill="none">
    <polygon points="165,90 195,75 225,90 195,105" fill="#48bb78" opacity="0.9"/> <!-- top face -->
    <polygon points="165,90 165,110 195,125 195,105" fill="#38a169" opacity="0.9"/> <!-- left face -->
    <polygon points="195,105 195,125 225,110 225,90" fill="#2f855a" opacity="0.9"/> <!-- right face -->
  </g>
  
  <!-- Cube 8: Mid-level floating bridge -->
  <g stroke="#2d3748" stroke-width="1.5" fill="none">
    <polygon points="135,75 165,60 195,75 165,90" fill="#48bb78" opacity="0.9"/> <!-- top face -->
    <polygon points="135,75 135,95 165,110 165,90" fill="#38a169" opacity="0.9"/> <!-- left face -->
    <polygon points="165,90 165,110 195,95 195,75" fill="#2f855a" opacity="0.9"/> <!-- right face -->
  </g>
  
  <!-- Upper asymmetric extensions - 3 cubes -->
  <!-- Cube 9: Upper left arm -->
  <g stroke="#2d3748" stroke-width="1.5" fill="none">
    <polygon points="45,60 75,45 105,60 75,75" fill="#ed8936" opacity="0.9"/> <!-- top face -->
    <polygon points="45,60 45,80 75,95 75,75" fill="#dd6b20" opacity="0.9"/> <!-- left face -->
    <polygon points="75,75 75,95 105,80 105,60" fill="#c05621" opacity="0.9"/> <!-- right face -->
  </g>
  
  <!-- Cube 10: Upper center spire -->
  <g stroke="#2d3748" stroke-width="1.5" fill="none">
    <polygon points="120,50 150,35 180,50 150,65" fill="#ed8936" opacity="0.9"/> <!-- top face -->
    <polygon points="120,50 120,70 150,85 150,65" fill="#dd6b20" opacity="0.9"/> <!-- left face -->
    <polygon points="150,65 150,85 180,70 180,50" fill="#c05621" opacity="0.9"/> <!-- right face -->
  </g>
  
  <!-- Cube 11: Upper asymmetric peak -->
  <g stroke="#2d3748" stroke-width="1.5" fill="none">
    <polygon points="105,35 135,20 165,35 135,50" fill="#9f7aea" opacity="0.9"/> <!-- top face -->
    <polygon points="105,35 105,55 135,70 135,50" fill="#805ad5" opacity="0.9"/> <!-- left face -->
    <polygon points="135,50 135,70 165,55 165,35" fill="#6b46c1" opacity="0.9"/> <!-- right face -->
  </g>
  
  <!-- Complex connecting lines for asymmetric structure -->
  <line x1="30" y1="130" x2="190" y2="105" stroke="#1a202c" stroke-width="0.8" opacity="0.3"/>
  <line x1="75" y1="110" x2="165" y2="90" stroke="#1a202c" stroke-width="0.8" opacity="0.3"/>
  <line x1="45" y1="60" x2="180" y2="50" stroke="#1a202c" stroke-width="0.8" opacity="0.3"/>
  
  <!-- Asymmetric accent marks -->
  <circle cx="105" cy="125" r="2" fill="#1a202c" opacity="0.3"/>
  <circle cx="150" cy="85" r="2" fill="#1a202c" opacity="0.3"/>
  <circle cx="135" cy="50" r="2" fill="#1a202c" opacity="0.3"/>
</svg>
