<svg width="200" height="160" viewBox="0 0 200 160" xmlns="http://www.w3.org/2000/svg">
  <!-- Corner block structure - 6 cubes forming an L-shaped corner -->
  
  <!-- Base horizontal arm - 3 cubes -->
  <!-- Cube 1: Corner base -->
  <g stroke="#2d3748" stroke-width="1.5" fill="none">
    <polygon points="70,100 100,85 130,100 100,115" fill="#3182ce" opacity="0.9"/> <!-- top face -->
    <polygon points="70,100 70,120 100,135 100,115" fill="#2c5282" opacity="0.9"/> <!-- left face -->
    <polygon points="100,115 100,135 130,120 130,100" fill="#2a69ac" opacity="0.9"/> <!-- right face -->
  </g>
  
  <!-- Cube 2: Right extension -->
  <g stroke="#2d3748" stroke-width="1.5" fill="none">
    <polygon points="130,100 160,85 190,100 160,115" fill="#3182ce" opacity="0.9"/> <!-- top face -->
    <polygon points="130,100 130,120 160,135 160,115" fill="#2c5282" opacity="0.9"/> <!-- left face -->
    <polygon points="160,115 160,135 190,120 190,100" fill="#2a69ac" opacity="0.9"/> <!-- right face -->
  </g>
  
  <!-- Cube 3: Left extension -->
  <g stroke="#2d3748" stroke-width="1.5" fill="none">
    <polygon points="10,100 40,85 70,100 40,115" fill="#3182ce" opacity="0.9"/> <!-- top face -->
    <polygon points="10,100 10,120 40,135 40,115" fill="#2c5282" opacity="0.9"/> <!-- left face -->
    <polygon points="40,115 40,135 70,120 70,100" fill="#2a69ac" opacity="0.9"/> <!-- right face -->
  </g>
  
  <!-- Vertical arm - 3 cubes going upward from corner -->
  <!-- Cube 4: First level up from corner -->
  <g stroke="#2d3748" stroke-width="1.5" fill="none">
    <polygon points="70,70 100,55 130,70 100,85" fill="#48bb78" opacity="0.9"/> <!-- top face -->
    <polygon points="70,70 70,90 100,105 100,85" fill="#38a169" opacity="0.9"/> <!-- left face -->
    <polygon points="100,85 100,105 130,90 130,70" fill="#2f855a" opacity="0.9"/> <!-- right face -->
  </g>
  
  <!-- Cube 5: Second level up -->
  <g stroke="#2d3748" stroke-width="1.5" fill="none">
    <polygon points="70,40 100,25 130,40 100,55" fill="#ed8936" opacity="0.9"/> <!-- top face -->
    <polygon points="70,40 70,60 100,75 100,55" fill="#dd6b20" opacity="0.9"/> <!-- left face -->
    <polygon points="100,55 100,75 130,60 130,40" fill="#c05621" opacity="0.9"/> <!-- right face -->
  </g>
  
  <!-- Cube 6: Top level -->
  <g stroke="#2d3748" stroke-width="1.5" fill="none">
    <polygon points="70,10 100,(-5) 130,10 100,25" fill="#9f7aea" opacity="0.9"/> <!-- top face -->
    <polygon points="70,10 70,30 100,45 100,25" fill="#805ad5" opacity="0.9"/> <!-- left face -->
    <polygon points="100,25 100,45 130,30 130,10" fill="#6b46c1" opacity="0.9"/> <!-- right face -->
  </g>
  
  <!-- Corner definition lines -->
  <!-- Horizontal base line -->
  <line x1="10" y1="100" x2="190" y2="100" stroke="#1a202c" stroke-width="1.2" opacity="0.6"/>
  
  <!-- Vertical corner line -->
  <line x1="100" y1="115" x2="100" y2="25" stroke="#1a202c" stroke-width="1.2" opacity="0.6"/>
  
  <!-- Corner junction emphasis -->
  <circle cx="100" cy="100" r="3" fill="#1a202c" opacity="0.4"/>
  
  <!-- Structural accent lines -->
  <line x1="70" y1="70" x2="130" y2="70" stroke="#1a202c" stroke-width="0.8" opacity="0.4"/>
  <line x1="70" y1="40" x2="130" y2="40" stroke="#1a202c" stroke-width="0.8" opacity="0.4"/>
  <line x1="70" y1="10" x2="130" y2="10" stroke="#1a202c" stroke-width="0.8" opacity="0.4"/>
</svg>
