<svg width="240" height="180" viewBox="0 0 240 180" xmlns="http://www.w3.org/2000/svg">
  <!-- Complex multi-level staircase with 9 cubes in stepped formation -->
  
  <!-- Bottom level - 4 cubes foundation -->
  <!-- Cube 1: Bottom back left -->
  <g stroke="#2d3748" stroke-width="1.5" fill="none">
    <polygon points="20,140 50,125 80,140 50,155" fill="#3182ce" opacity="0.9"/> <!-- top face -->
    <polygon points="20,140 20,160 50,175 50,155" fill="#2c5282" opacity="0.9"/> <!-- left face -->
    <polygon points="50,155 50,175 80,160 80,140" fill="#2a69ac" opacity="0.9"/> <!-- right face -->
  </g>
  
  <!-- Cube 2: Bottom center left -->
  <g stroke="#2d3748" stroke-width="1.5" fill="none">
    <polygon points="80,140 110,125 140,140 110,155" fill="#3182ce" opacity="0.9"/> <!-- top face -->
    <polygon points="80,140 80,160 110,175 110,155" fill="#2c5282" opacity="0.9"/> <!-- left face -->
    <polygon points="110,155 110,175 140,160 140,140" fill="#2a69ac" opacity="0.9"/> <!-- right face -->
  </g>
  
  <!-- Cube 3: Bottom center right -->
  <g stroke="#2d3748" stroke-width="1.5" fill="none">
    <polygon points="140,140 170,125 200,140 170,155" fill="#3182ce" opacity="0.9"/> <!-- top face -->
    <polygon points="140,140 140,160 170,175 170,155" fill="#2c5282" opacity="0.9"/> <!-- left face -->
    <polygon points="170,155 170,175 200,160 200,140" fill="#2a69ac" opacity="0.9"/> <!-- right face -->
  </g>
  
  <!-- Cube 4: Bottom front right -->
  <g stroke="#2d3748" stroke-width="1.5" fill="none">
    <polygon points="170,120 200,105 230,120 200,135" fill="#3182ce" opacity="0.9"/> <!-- top face -->
    <polygon points="170,120 170,140 200,155 200,135" fill="#2c5282" opacity="0.9"/> <!-- left face -->
    <polygon points="200,135 200,155 230,140 230,120" fill="#2a69ac" opacity="0.9"/> <!-- right face -->
  </g>
  
  <!-- Second level - 3 cubes -->
  <!-- Cube 5: Second level back -->
  <g stroke="#2d3748" stroke-width="1.5" fill="none">
    <polygon points="50,110 80,95 110,110 80,125" fill="#48bb78" opacity="0.9"/> <!-- top face -->
    <polygon points="50,110 50,130 80,145 80,125" fill="#38a169" opacity="0.9"/> <!-- left face -->
    <polygon points="80,125 80,145 110,130 110,110" fill="#2f855a" opacity="0.9"/> <!-- right face -->
  </g>
  
  <!-- Cube 6: Second level center -->
  <g stroke="#2d3748" stroke-width="1.5" fill="none">
    <polygon points="110,110 140,95 170,110 140,125" fill="#48bb78" opacity="0.9"/> <!-- top face -->
    <polygon points="110,110 110,130 140,145 140,125" fill="#38a169" opacity="0.9"/> <!-- left face -->
    <polygon points="140,125 140,145 170,130 170,110" fill="#2f855a" opacity="0.9"/> <!-- right face -->
  </g>
  
  <!-- Cube 7: Second level front -->
  <g stroke="#2d3748" stroke-width="1.5" fill="none">
    <polygon points="140,90 170,75 200,90 170,105" fill="#48bb78" opacity="0.9"/> <!-- top face -->
    <polygon points="140,90 140,110 170,125 170,105" fill="#38a169" opacity="0.9"/> <!-- left face -->
    <polygon points="170,105 170,125 200,110 200,90" fill="#2f855a" opacity="0.9"/> <!-- right face -->
  </g>
  
  <!-- Third level - 2 cubes -->
  <!-- Cube 8: Third level back -->
  <g stroke="#2d3748" stroke-width="1.5" fill="none">
    <polygon points="80,80 110,65 140,80 110,95" fill="#ed8936" opacity="0.9"/> <!-- top face -->
    <polygon points="80,80 80,100 110,115 110,95" fill="#dd6b20" opacity="0.9"/> <!-- left face -->
    <polygon points="110,95 110,115 140,100 140,80" fill="#c05621" opacity="0.9"/> <!-- right face -->
  </g>
  
  <!-- Cube 9: Third level front -->
  <g stroke="#2d3748" stroke-width="1.5" fill="none">
    <polygon points="110,60 140,45 170,60 140,75" fill="#ed8936" opacity="0.9"/> <!-- top face -->
    <polygon points="110,60 110,80 140,95 140,75" fill="#dd6b20" opacity="0.9"/> <!-- left face -->
    <polygon points="140,75 140,95 170,80 170,60" fill="#c05621" opacity="0.9"/> <!-- right face -->
  </g>
  
  <!-- Fourth level - 1 cube (top) -->
  <!-- Cube 10: Peak cube -->
  <g stroke="#2d3748" stroke-width="1.5" fill="none">
    <polygon points="110,40 140,25 170,40 140,55" fill="#9f7aea" opacity="0.9"/> <!-- top face -->
    <polygon points="110,40 110,60 140,75 140,55" fill="#805ad5" opacity="0.9"/> <!-- left face -->
    <polygon points="140,55 140,75 170,60 170,40" fill="#6b46c1" opacity="0.9"/> <!-- right face -->
  </g>
  
  <!-- Step definition lines -->
  <line x1="20" y1="140" x2="200" y2="140" stroke="#1a202c" stroke-width="1" opacity="0.5"/>
  <line x1="50" y1="110" x2="170" y2="110" stroke="#1a202c" stroke-width="1" opacity="0.5"/>
  <line x1="80" y1="80" x2="140" y2="80" stroke="#1a202c" stroke-width="1" opacity="0.5"/>
  <line x1="110" y1="40" x2="170" y2="40" stroke="#1a202c" stroke-width="1" opacity="0.4"/>
  
  <!-- Diagonal step edges -->
  <line x1="50" y1="155" x2="110" y2="95" stroke="#1a202c" stroke-width="0.8" opacity="0.4"/>
  <line x1="140" y1="125" x2="170" y2="75" stroke="#1a202c" stroke-width="0.8" opacity="0.4"/>
</svg>
